<svg id="Layer_1" data-name="Layer 1" xmlns="http://www.w3.org/2000/svg" xmlns:xlink="http://www.w3.org/1999/xlink" viewBox="0 0 1900.1 2093.76"><defs><style>.cls-1{fill:none;}.cls-2{fill:url(#linear-gradient);}.cls-3{fill:url(#linear-gradient-2);}.cls-4{fill:url(#linear-gradient-3);}.cls-5{fill:url(#linear-gradient-4);}</style><linearGradient id="linear-gradient" y1="1082.73" x2="0" y2="1082.73" gradientUnits="userSpaceOnUse"><stop offset="0" stop-color="#fff"/><stop offset="1" stop-color="#fff" stop-opacity="0.75"/></linearGradient><linearGradient id="linear-gradient-2" x1="1978.81" y1="1126.21" x2="914.81" y2="1134.21" gradientUnits="userSpaceOnUse"><stop offset="0" stop-color="#fff"/><stop offset="1" stop-color="#fff" stop-opacity="0"/></linearGradient><linearGradient id="linear-gradient-3" x1="1979.27" y1="1188.01" x2="915.27" y2="1196.01" xlink:href="#linear-gradient-2"/><linearGradient id="linear-gradient-4" x1="-255.55" y1="208.37" x2="377.55" y2="218.29" xlink:href="#linear-gradient-2"/></defs><title>bg-service</title><rect class="cls-1" width="1900.1" height="2093.76"/><path class="cls-2" d="M0,1082.73H0Z" transform="translate(0 86)"/><rect class="cls-3" x="783.3" y="1124" width="1116.7" height="14"/><rect class="cls-4" x="960" y="1186" width="940" height="12.27"/><path class="cls-5" d="M23,232c8,42,42.93-7.66,57.33,47.33,7.33,28-36.6,97.45-70.89,111A6.9,6.9,0,0,1,0,383.94V34S31,46,26,75c-2.4,13.92-8.49,33.37-14.17,49.84A6.9,6.9,0,0,0,18.35,134H556.11L221,145.33c-18.54,0-138.61,19.3-154.91,28.13C38.85,188.22,16.71,199,23,232Z" transform="translate(0 86)"/></svg>